<svg xmlns="http://www.w3.org/2000/svg" width="22" height="22" viewBox="0 0 22 22">
  <path id="camera" d="M11.14,12.35l5.247-9.086A11.336,11.336,0,0,0,14,3,10.983,10.983,0,0,0,7.048,5.475l4.026,6.985ZM24.494,10.7a11.027,11.027,0,0,0-6.6-6.974L13.868,10.7H24.494Zm.286,1.1H16.541l.319.55L22.1,21.425A10.9,10.9,0,0,0,25,14,11.136,11.136,0,0,0,24.78,11.8ZM10.194,14,5.9,6.575A10.953,10.953,0,0,0,3,14a11.136,11.136,0,0,0,.22,2.2h8.239L10.194,14ZM3.506,17.3a11.027,11.027,0,0,0,6.6,6.974L14.132,17.3Zm12.4,0-4.29,7.436A11.336,11.336,0,0,0,14,25a10.983,10.983,0,0,0,6.952-2.475L16.926,15.54,15.9,17.3Z" transform="translate(-3 -3)" fill="#8e8e8e"/>
</svg>
