<svg xmlns="http://www.w3.org/2000/svg" width="18.984" height="9.588" viewBox="0 0 18.984 9.588">
  <path id="Coffee_" data-name="Coffee " d="M658.616,222.375a3.177,3.177,0,0,0-2.429-.565,10.052,10.052,0,0,0,.064-1.09c0-.176-.014-.346-.023-.52H640.207c-.007.174-.023.343-.023.52,0,5.009,3.6,9.068,8.033,9.068a7.574,7.574,0,0,0,5.666-2.642,3.6,3.6,0,0,0,1.639.408,3.648,3.648,0,0,0,3.645-3.645A2.056,2.056,0,0,0,658.616,222.375ZM655.523,226a2.031,2.031,0,0,1-.689-.14,9.539,9.539,0,0,0,1.067-2.491l.25,0a3.259,3.259,0,0,1,1.378.119.7.7,0,0,1,.085.424A2.092,2.092,0,0,1,655.523,226Z" transform="translate(-640.184 -220.2)" fill="#f39200"/>
</svg>
