<svg xmlns="http://www.w3.org/2000/svg" width="207.621" height="180.135" viewBox="0 0 207.621 180.135"><path d="M51.5-46A97.507,97.507,0,0,1,96.709,137.9L75.364,97.149a51.623,51.623,0,0,0,25.768-31.856h0q.085-.305.166-.613v0l.02-.075v0l.02-.076h0l.03-.115v0l.019-.076h0c.023-.09.046-.179.068-.269h0l.019-.076v0l.019-.076h0l.028-.114v0l.018-.074v0l.028-.114h0l.018-.077h0l.018-.076v0l.018-.076h0l.027-.115h0l.018-.077v0l.018-.076v0l.009-.037h0l.018-.077v0l.017-.076v0l.017-.075v0l.017-.076h0l.008-.038h0l.017-.077h0l.017-.077v0l.017-.077h0l.008-.038h0l.017-.077h0l.016-.077v0l.016-.075V62.19l.007-.035h0l.008-.039h0l.008-.036v0l.015-.074v0l.015-.073v-.006l.007-.032v-.005l.007-.036v-.006l.006-.032V61.8l.007-.037v0l.007-.034v-.007l.014-.072v-.007l.007-.034v0l.007-.037v-.006l.006-.033v0l.007-.038h0l.007-.037v0l.015-.075v-.005l.007-.036h0l.007-.037v-.006l.006-.033v0l.007-.037v0l.007-.034v0l.014-.074v-.006l.014-.075v0l.007-.036v0l.007-.038v0l.006-.033v-.005l.014-.075v0l.014-.075v-.005l.007-.036h0l.007-.038v0l.006-.034v0l.013-.075v0l.013-.075v-.005l.013-.075v0l.006-.035v0l.007-.038v0l.006-.035v0l.013-.076v0l.013-.076v0l.006-.035v0l.006-.038v0l.006-.034v-.007l.012-.074V59.9l.012-.074v-.006l.006-.036h0l.006-.039v0l.006-.036v0l.006-.039v0l.006-.035V59.62l.012-.074v-.007l.005-.034v0l.006-.037v-.005l.005-.033v-.006l.006-.037v0l0-.032V59.34l.011-.074V59.26l.011-.075V59.18l.005-.035v0l.006-.038v0l0-.034v-.005l.006-.038h0l.005-.037V58.98l.011-.076v0l.005-.036v0l.006-.039v0l.005-.036v0l.005-.038v0l0-.035V58.7l.01-.074v-.007l.01-.074v-.006l0-.033V58.5l.005-.038v0l0-.035v-.006l.01-.075v-.005l.01-.076v0l0-.033v-.006l0-.037v0l0-.033v-.007l.009-.073v-.01l.009-.073v-.007l0-.036h0l0-.039v0l0-.036v0l0-.039h0l0-.036v-.007l.009-.074v-.007l0-.034v0l0-.037v-.007l0-.032v-.007l0-.037v-.005l0-.032v-.008l.008-.072v-.011l0-.031v0l0-.036v-.009l0-.029V57.29l0-.036v-.007l0-.031v-.009l0-.036v0l0-.035v-.007l0-.035v0l0-.037v-.008l0-.033v0l0-.037v-.007l0-.031v-.009l0-.037v0l0-.032v-.01l0-.032V56.8l0-.034v-.011l0-.028v-.008l0-.036v-.008l0-.03v-.009l0-.036V56.6l0-.032v-.007l0-.037h0l0-.037v-.009l0-.033v0l0-.037V56.4l0-.032v-.007l0-.037v-.005l0-.032v-.009l0-.036v0l0-.033v-.009l0-.035h0l0-.037v-.008l0-.032v-.006l0-.036v-.008l0-.03V55.99l0-.037v0l0-.033v-.008l.006-.075v-.008l0-.031v-.007l0-.037v-.007l0-.032v-.007l0-.038h0l0-.036v-.008l.006-.074v-.009l0-.033v0l0-.036v-.009l0-.031v0l0-.038v-.006l0-.033v-.006l.006-.076v-.007l0-.036v0l0-.039v0l0-.034v-.005l0-.038v0l0-.034v-.007l.005-.075v-.008l0-.074v-.01l0-.031v-.006l0-.036V54.8l0-.028v-.009l0-.037v0l0-.034v-.008l0-.035v0l0-.035V54.6l0-.034v0l0-.038v-.007l0-.031v-.009l0-.037v-.005l0-.032v-.009l0-.037h0l0-.036V54.31l0-.035h0l0-.037v-.009l0-.031v-.007l0-.036v-.048l0-.036v0l0-.033v-.009l0-.033v0l0-.037V53.9l0-.036v-.047l0-.036v-.048l0-.073v-.215l0-.075v-.251h0v-.625c0-.025,0-.049,0-.075v-.674c0-.01,0-.021,0-.03v-.008q0-.018,0-.036s0-.006,0-.009,0-.02,0-.03v-.008c0-.013,0-.024,0-.037s0-.006,0-.008,0-.02,0-.03,0-.008,0-.011,0-.024,0-.037h0A51.5,51.5,0,0,0,51.5,0Z" transform="matrix(0.53, 0.848, -0.848, 0.53, 89.652, -19.298)" fill="#e71d73" style="mix-blend-mode:multiply;isolation:isolate"/></svg>