<svg id="Group_1043" data-name="Group 1043" xmlns="http://www.w3.org/2000/svg" width="16.296" height="16.296" viewBox="0 0 16.296 16.296">
  <path id="Path_430" data-name="Path 430" d="M15.4,0H.893A.9.9,0,0,0,0,.9V15.4a.9.9,0,0,0,.9.893H8.705v-6.3H6.587V7.527H8.705V5.712a2.964,2.964,0,0,1,3.163-3.251,17.042,17.042,0,0,1,1.9.1v2.2H12.471c-1.022,0-1.221.489-1.221,1.2V7.527h2.438l-.326,2.467H11.244v6.3H15.4a.9.9,0,0,0,.9-.9V.893A.9.9,0,0,0,15.4,0Z" transform="translate(0 0)" fill="#4267b2"/>
  <path id="f" d="M45.044,28.935v-6.3h2.119l.326-2.467H45.044V18.595c0-.712.2-1.2,1.221-1.2h1.294V15.2a17.041,17.041,0,0,0-1.9-.1A2.961,2.961,0,0,0,42.5,18.35v1.815H40.38v2.467H42.5v6.3Z" transform="translate(-33.8 -12.638)" fill="#fff"/>
</svg>
