<svg xmlns="http://www.w3.org/2000/svg" xmlns:xlink="http://www.w3.org/1999/xlink" width="109.126" height="110.844" viewBox="0 0 109.126 110.844">
  <defs>
    <linearGradient id="linear-gradient" x1="0.204" y1="0.059" x2="0.816" y2="0.971" gradientUnits="objectBoundingBox">
      <stop offset="0" stop-color="#ff9825"/>
      <stop offset="1" stop-color="#ed5f21"/>
    </linearGradient>
    <filter id="Path_449" x="0" y="0" width="109.126" height="110.844" filterUnits="userSpaceOnUse">
      <feOffset dy="10" input="SourceAlpha"/>
      <feGaussianBlur stdDeviation="5.5" result="blur"/>
      <feFlood flood-opacity="0.051"/>
      <feComposite operator="in" in2="blur"/>
      <feComposite in="SourceGraphic"/>
    </filter>
    <filter id="BIG" x="28.991" y="23.753" width="51" height="36" filterUnits="userSpaceOnUse">
      <feOffset dy="1" input="SourceAlpha"/>
      <feGaussianBlur stdDeviation="1.5" result="blur-2"/>
      <feFlood flood-opacity="0.161"/>
      <feComposite operator="in" in2="blur-2"/>
      <feComposite in="SourceGraphic"/>
    </filter>
    <filter id="OFFERS" x="28.519" y="49.091" width="51" height="21" filterUnits="userSpaceOnUse">
      <feOffset dy="2" input="SourceAlpha"/>
      <feGaussianBlur stdDeviation="1.5" result="blur-3"/>
      <feFlood flood-opacity="0.161"/>
      <feComposite operator="in" in2="blur-3"/>
      <feComposite in="SourceGraphic"/>
    </filter>
  </defs>
  <g id="Group_1875" data-name="Group 1875" transform="translate(-160.648 -35.001)">
    <g id="Group_1874" data-name="Group 1874" transform="translate(177.148 41.501)">
      <g id="Group_1873" data-name="Group 1873" transform="translate(0 0)">
        <g id="Group_1872" data-name="Group 1872">
          <g transform="matrix(1, 0, 0, 1, -16.5, -6.5)" filter="url(#Path_449)">
            <path id="Path_449-2" data-name="Path 449" d="M217.935,42.685l5.128,2.469a4.661,4.661,0,0,0,2.023.462h5.692a4.664,4.664,0,0,1,3.645,1.755l3.548,4.45a4.662,4.662,0,0,0,1.622,1.293l5.128,2.47a4.663,4.663,0,0,1,2.522,3.163l1.266,5.549a4.665,4.665,0,0,0,.9,1.869l3.548,4.449a4.663,4.663,0,0,1,.9,3.945l-1.266,5.548a4.677,4.677,0,0,0,0,2.075l1.266,5.548a4.663,4.663,0,0,1-.9,3.945l-3.548,4.449a4.665,4.665,0,0,0-.9,1.869l-1.266,5.548a4.663,4.663,0,0,1-2.522,3.163l-5.128,2.47a4.662,4.662,0,0,0-1.622,1.293l-3.548,4.45a4.664,4.664,0,0,1-3.645,1.755h-5.692a4.661,4.661,0,0,0-2.023.462l-5.128,2.469a4.661,4.661,0,0,1-4.046,0l-5.128-2.469a4.659,4.659,0,0,0-2.023-.462h-5.691a4.664,4.664,0,0,1-3.646-1.755l-3.548-4.45a4.662,4.662,0,0,0-1.622-1.293l-5.127-2.47a4.662,4.662,0,0,1-2.523-3.163l-1.266-5.548a4.665,4.665,0,0,0-.9-1.869l-3.548-4.449a4.663,4.663,0,0,1-.9-3.945l1.266-5.548a4.656,4.656,0,0,0,0-2.075l-1.266-5.548a4.663,4.663,0,0,1,.9-3.945l3.548-4.449a4.665,4.665,0,0,0,.9-1.869l1.266-5.549a4.662,4.662,0,0,1,2.523-3.163l5.127-2.47a4.662,4.662,0,0,0,1.622-1.293l3.548-4.45a4.664,4.664,0,0,1,3.646-1.755h5.691a4.659,4.659,0,0,0,2.023-.462l5.128-2.469A4.661,4.661,0,0,1,217.935,42.685Z" transform="translate(-161.35 -35.72)" fill="url(#linear-gradient)"/>
          </g>
          <g id="Group_1871" data-name="Group 1871" transform="translate(4.763 4.87)" style="mix-blend-mode: screen;isolation: isolate">
            <path id="Path_450" data-name="Path 450" d="M220,49.864l4.486,2.16a4.069,4.069,0,0,0,1.77.4h4.979a4.079,4.079,0,0,1,3.189,1.536l3.1,3.893a4.07,4.07,0,0,0,1.419,1.132l4.486,2.16a4.082,4.082,0,0,1,2.207,2.768l1.108,4.854a4.083,4.083,0,0,0,.788,1.635l3.1,3.893a4.081,4.081,0,0,1,.788,3.451L250.317,82.6a4.073,4.073,0,0,0,0,1.816l1.108,4.854a4.081,4.081,0,0,1-.788,3.451l-3.1,3.893a4.079,4.079,0,0,0-.788,1.635l-1.108,4.854a4.082,4.082,0,0,1-2.207,2.768l-4.486,2.16a4.07,4.07,0,0,0-1.419,1.132l-3.1,3.893a4.079,4.079,0,0,1-3.189,1.536h-4.979a4.078,4.078,0,0,0-1.77.4L220,117.16a4.081,4.081,0,0,1-3.54,0L211.972,115a4.083,4.083,0,0,0-1.77-.4h-4.979a4.08,4.08,0,0,1-3.189-1.536l-3.1-3.893a4.082,4.082,0,0,0-1.419-1.132l-4.486-2.16a4.082,4.082,0,0,1-2.207-2.768l-1.108-4.854a4.079,4.079,0,0,0-.788-1.635l-3.1-3.893a4.079,4.079,0,0,1-.787-3.451l1.108-4.854a4.073,4.073,0,0,0,0-1.816l-1.108-4.854a4.079,4.079,0,0,1,.787-3.451l3.1-3.893a4.083,4.083,0,0,0,.788-1.635l1.108-4.854a4.082,4.082,0,0,1,2.207-2.768l4.486-2.16a4.082,4.082,0,0,0,1.419-1.132l3.1-3.893a4.08,4.08,0,0,1,3.189-1.536H210.2a4.074,4.074,0,0,0,1.77-.4l4.486-2.16A4.081,4.081,0,0,1,220,49.864Z" transform="translate(-184.927 -49.46)" fill="none" stroke="#ff9825" stroke-width="1.575"/>
          </g>
        </g>
      </g>
    </g>
    <g transform="matrix(1, 0, 0, 1, 160.65, 35)" filter="url(#BIG)">
      <text id="BIG-2" data-name="BIG" transform="translate(54.49 50.25)" fill="#fff" font-size="23" font-family="Montserrat-Black, Montserrat" font-weight="800"><tspan x="-20" y="0">BIG</tspan></text>
    </g>
    <g transform="matrix(1, 0, 0, 1, 160.65, 35)" filter="url(#OFFERS)">
      <text id="OFFERS-2" data-name="OFFERS" transform="translate(54.02 61.59)" fill="#ffc627" font-size="10" font-family="Montserrat-Black, Montserrat" font-weight="800"><tspan x="-20" y="0">OFFERS</tspan></text>
    </g>
  </g>
</svg>
