<svg xmlns="http://www.w3.org/2000/svg" width="20.13" height="20.13" viewBox="0 0 20.13 20.13"><path d="M10.065.563A10.065,10.065,0,1,0,20.13,10.628,10.065,10.065,0,0,0,10.065.563Zm6.494,8.746V9.59a.629.629,0,0,1-.348.563l-.625.313a.628.628,0,0,1-.63-.039l-.739-.493a.63.63,0,0,0-.548-.073l-.108.036a.629.629,0,0,0-.324.946l.537.806a.629.629,0,0,0,.523.28h.333a.629.629,0,0,1,.629.629v.46a.63.63,0,0,1-.126.377l-.761,1.014a.632.632,0,0,0-.115.261l-.175.927a.63.63,0,0,1-.193.347,6.478,6.478,0,0,0-1.015,1.183l-.529.793A1.126,1.126,0,0,1,10.4,17.8a3.2,3.2,0,0,1-.338-1.432V15.153a.629.629,0,0,0-.629-.629H8.386a2.217,2.217,0,0,1-2.217-2.217v-.571a2.218,2.218,0,0,1,.887-1.774l1.119-.84a2.219,2.219,0,0,1,1.33-.444h.036a2.213,2.213,0,0,1,.991.234l.6.3a.628.628,0,0,0,.48.034l1.92-.64a.629.629,0,0,0-.2-1.226h-.41a.629.629,0,0,1-.445-.184L12.2,6.915a.629.629,0,0,0-.445-.184H8.1A.629.629,0,0,1,7.468,6.1V5.923a.629.629,0,0,1,.476-.61l.586-.147A.63.63,0,0,0,8.9,4.905l.328-.491a.629.629,0,0,1,.523-.28h.983a.629.629,0,0,0,.629-.629V2.624A8.128,8.128,0,0,1,17.936,8.68h-.748A.629.629,0,0,0,16.559,9.309Z" transform="translate(0 -0.563)" fill="#36a9e1"/></svg>