<svg xmlns="http://www.w3.org/2000/svg" width="17" height="14" viewBox="0 0 17 14">
  <path id="Icon_awesome-eye-slash" data-name="Icon awesome-eye-slash" d="M8.5,10.938A3.858,3.858,0,0,1,4.7,7.3L1.918,5.081A9.141,9.141,0,0,0,.943,6.6a.908.908,0,0,0,0,.8A8.5,8.5,0,0,0,8.5,12.25a8.03,8.03,0,0,0,2.069-.286l-1.378-1.1a3.723,3.723,0,0,1-.691.071Zm8.336,1.589L13.9,10.19A9.019,9.019,0,0,0,16.058,7.4a.908.908,0,0,0,0-.8A8.5,8.5,0,0,0,8.5,1.75,8,8,0,0,0,4.587,2.781L1.208.092a.417.417,0,0,0-.6.077L.09.86a.446.446,0,0,0,.075.614L15.793,13.908a.417.417,0,0,0,.6-.077l.522-.691a.446.446,0,0,0-.075-.614Zm-4.88-3.883-1.044-.831A2.659,2.659,0,0,0,11.05,7a2.619,2.619,0,0,0-.994-2.1,2.46,2.46,0,0,0-2.229-.424,1.329,1.329,0,0,1,.247.771,1.31,1.31,0,0,1-.041.273L6.079,3.968A3.715,3.715,0,0,1,8.5,3.062a3.768,3.768,0,0,1,2.705,1.153A4,4,0,0,1,12.325,7a3.938,3.938,0,0,1-.369,1.644Z" transform="translate(0 0)" fill="#e71d73"/>
</svg>
