<svg xmlns="http://www.w3.org/2000/svg" width="21.928" height="19.491" viewBox="0 0 21.928 19.491">
  <path id="map" d="M10.964,0a4.8,4.8,0,0,0-4.8,4.8c0,2.142,3.135,6.045,4.336,7.462a.6.6,0,0,0,.921,0c1.2-1.417,4.336-5.321,4.336-7.462A4.8,4.8,0,0,0,10.964,0ZM.766,8.221A1.218,1.218,0,0,0,0,9.352v9.529a.609.609,0,0,0,.835.566l5.256-2.392V8.182a11.529,11.529,0,0,1-.809-1.767Zm10.2,5.471a1.819,1.819,0,0,1-1.39-.646c-.748-.883-1.544-1.889-2.265-2.921v6.929l7.309,2.436V10.126c-.72,1.031-1.516,2.037-2.265,2.921A1.82,1.82,0,0,1,10.964,13.692ZM21.093,6.135,15.837,8.528V19.491l5.325-2.13a1.218,1.218,0,0,0,.766-1.131V6.7A.609.609,0,0,0,21.093,6.135Z" fill="#8e8e8e"/>
</svg>
