<svg xmlns="http://www.w3.org/2000/svg" width="171.089" height="68.902"
     viewBox="0 0 171.089 68.902">
  <defs>
    <clipPath id="clip-path">
      <rect id="Rectangle_3522" data-name="Rectangle 3522" width="10.672" height="13.801"
            transform="translate(218.739 35.631)" fill="none"/>
    </clipPath>
  </defs>
  <g id="Group_5010" data-name="Group 5010" transform="translate(-104.329 -124)">
    <path id="Path_20899" data-name="Path 20899"
          d="M136.881,8.8H126.528v3.069a21.78,21.78,0,0,1,0,37.084v3.393h10.353Z"
          transform="translate(11 124)" fill="#36a9e1"/>
    <g id="Group_5009" data-name="Group 5009">
      <path id="Path_20895" data-name="Path 20895"
            d="M162.652,52.195A21.788,21.788,0,0,1,140.9,30.417V8.985h10.353V30.417a11.4,11.4,0,0,0,22.794.011V8.985H184.4V30.417a21.788,21.788,0,0,1-21.75,21.778"
            transform="translate(11 124)" fill="#95c11f"/>
      <path id="Path_20894" data-name="Path 20894"
            d="M115.131,19a11.411,11.411,0,1,0,11.4,11.424v-.014A11.416,11.416,0,0,0,115.131,19m0,33.187a21.777,21.777,0,1,1,21.751-21.8v.023a21.787,21.787,0,0,1-21.751,21.778"
            transform="translate(11 124)" fill="#95c11f"/>
      <path id="Path_20900" data-name="Path 20900"
            d="M126.528,11.875V48.959a21.78,21.78,0,0,0,0-37.084"
            transform="translate(11 124)" fill="#00933a"/>
      <rect id="Rectangle_3523" data-name="Rectangle 3523" width="10.353" height="49.181"
            transform="translate(248.539 124)" fill="#95c11f"/>
      <rect id="Rectangle_3524" data-name="Rectangle 3524" width="10.353" height="49.181"
            transform="translate(265.065 124)" fill="#95c11f"/>
      <g id="Group_5008" data-name="Group 5008">
        <path id="Path_20897" data-name="Path 20897"
              d="M229.411,39.438a21.912,21.912,0,0,1-9.2,9.994,11.38,11.38,0,0,1-17,7.488l-5.3,8.909a21.763,21.763,0,0,0,31.5-26.388"
              transform="translate(11 124)" fill="#ad18e7"/>
        <path id="Path_20901" data-name="Path 20901"
              d="M232.3,8.64H209.617a21.751,21.751,0,0,1,18.519,10.366h4.16Z"
              transform="translate(11 124)" fill="#f39200"/>
        <g id="Group_5007" data-name="Group 5007">
          <path id="Path_20896" data-name="Path 20896"
                d="M209.616,19a11.411,11.411,0,1,0,11.4,11.425v-.015A11.416,11.416,0,0,0,209.616,19m0,33.187a21.777,21.777,0,1,1,21.75-21.8v.025a21.79,21.79,0,0,1-21.75,21.778"
                transform="translate(11 124)" fill="#95c11f"/>
          <g id="Group_3934" data-name="Group 3934" transform="translate(11 124)"
             opacity="0.89" style="mix-blend-mode: multiply;isolation: isolate">
            <g id="Group_3933" data-name="Group 3933">
              <g id="Group_3932" data-name="Group 3932" clip-path="url(#clip-path)">
                <path id="Path_20898" data-name="Path 20898"
                      d="M227.534,35.631l-8.795,5.47a11.383,11.383,0,0,1,1.473,8.33,21.913,21.913,0,0,0,9.2-9.992,21.829,21.829,0,0,0-1.878-3.808"
                      fill="#7f0073"/>
              </g>
            </g>
          </g>
          <path id="Path_20902" data-name="Path 20902"
                d="M209.617,8.64V19.006h18.518A21.75,21.75,0,0,0,209.617,8.64"
                transform="translate(11 124)" fill="#824d00"/>
        </g>
      </g>
    </g>
  </g>
</svg>
