<svg xmlns="http://www.w3.org/2000/svg" width="264.279" height="159.702" viewBox="0 0 264.279 159.702">
  <g id="Group_6288" data-name="Group 6288" transform="translate(-55.361 -1387.563)">
    <g id="Group_6287" data-name="Group 6287" transform="translate(6.388 1301.903)">
      <line id="Line_460" data-name="Line 460" x2="9.431" transform="translate(201.941 103.895)" fill="none" stroke="#d3d3d3" stroke-linecap="round" stroke-width="3"/>
      <line id="Line_461" data-name="Line 461" x2="9.431" transform="translate(201.941 106.614)" fill="none" stroke="#d3d3d3" stroke-linecap="round" stroke-width="3"/>
      <line id="Line_462" data-name="Line 462" x2="9.431" transform="translate(201.941 109.332)" fill="none" stroke="#d3d3d3" stroke-linecap="round" stroke-width="3"/>
      <line id="Line_463" data-name="Line 463" x2="9.431" transform="translate(208.475 179.554)" fill="none" stroke="#d3d3d3" stroke-linecap="round" stroke-width="3"/>
      <line id="Line_464" data-name="Line 464" x2="9.431" transform="translate(208.475 182.272)" fill="none" stroke="#d3d3d3" stroke-linecap="round" stroke-width="3"/>
      <line id="Line_465" data-name="Line 465" x2="9.431" transform="translate(208.475 184.99)" fill="none" stroke="#d3d3d3" stroke-linecap="round" stroke-width="3"/>
      <path id="Path_46128" data-name="Path 46128" d="M330.273,233.519,293.73,237.2l-36.542-3.676a.622.622,0,0,1-.56-.619l-.861-2.519.861-41.262,37.1,3.733,37.1-3.733.819,41.6-.819,2.183a.622.622,0,0,1-.56.619Z" transform="translate(-96.559 -62.95)" fill="#e06714"/>
      <path id="Path_46129" data-name="Path 46129" d="M331.651,224.62l-37.921,3.66-37.963-4,.861-43.393a.622.622,0,0,1,.684-.619l36.418,3.664,36.418-3.664a.622.622,0,0,1,.684.619Z" transform="translate(-96.559 -56.853)" fill="#ee781d"/>
      <path id="Path_46130" data-name="Path 46130" d="M376.855,225.77l36.465-3.548-1.521-41.37-32.222,3.242Z" transform="translate(-179.983 -57.254)" fill="#e06714"/>
      <path id="Path_46131" data-name="Path 46131" d="M376.855,168.521l31.876-3.583,1.477,46.623-33.353,3.245Z" transform="translate(-179.983 -46.29)" fill="#e06714"/>
      <path id="Path_46132" data-name="Path 46132" d="M308.374,174.175l-33.519-.6,1.792,45.389,29.936,1.792Z" transform="translate(-109.71 -52.243)" fill="#e06714"/>
      <path id="Path_46133" data-name="Path 46133" d="M377.815,160.6l31.877-3.583,2.24,46.732-34.116,3.135Z" transform="translate(-180.644 -40.834)" fill="#f9ae2b"/>
      <path id="Path_46134" data-name="Path 46134" d="M377.815,305.435v1.547l34.116-3.135-.074-1.54Z" transform="translate(-180.644 -140.93)" fill="#e59413"/>
      <path id="Path_46135" data-name="Path 46135" d="M303.574,167.215l-33.519-.6,1.792,45.389,31.727,1.493Z" transform="translate(-106.403 -47.448)" fill="#f9ae2b"/>
      <path id="Path_46136" data-name="Path 46136" d="M275.815,309.007l31.727,1.493v-1.594l-31.727-1.493Z" transform="translate(-110.372 -144.448)" fill="#e59413"/>
      <path id="Path_46137" data-name="Path 46137" d="M280.853,196.986a16.814,16.814,0,0,0,12.592,15.835l13.964.657v-44.2a69.9,69.9,0,0,1-21.491-2.378l-5.854-.1Z" transform="translate(-113.299 -47.571)" fill="#e59413"/>
      <path id="Path_46138" data-name="Path 46138" d="M403.693,206.442a25.261,25.261,0,0,0,10.558-21.81l-1.279-25.882-7.731.869a91.282,91.282,0,0,1-15.709,5.82v42.3Z" transform="translate(-188.717 -42.027)" fill="#e59413"/>
      <path id="Path_46139" data-name="Path 46139" d="M377.815,143.736s17.842-4.628,23.217-11.2l1.5,30.391a25.263,25.263,0,0,1-19.39,25.825l-5.328,1.267Z" transform="translate(-180.644 -23.968)" fill="#f9ae2b"/>
      <path id="Path_46140" data-name="Path 46140" d="M382.559,160.154l-4.743,46.284s6.04-.456,6.513-.6a25.384,25.384,0,0,0,7.6-20.3l-2.891-29.17c-1.919.788-3.8,1.469-5.459,2.029C382.974,159.455,382.559,160.154,382.559,160.154Z" transform="translate(-180.645 -40.387)" fill="#e59413"/>
      <path id="Path_46141" data-name="Path 46141" d="M377.815,143.736s5.151-8.66,5.748-11.2l3.625,36.583a23.033,23.033,0,0,1-9.374,20.9h0Z" transform="translate(-180.644 -23.968)" fill="#f9ae2b"/>
      <path id="Path_46142" data-name="Path 46142" d="M317.132,158.617s-14.707,1.045-27.4-4.479l.841,32.186a16.816,16.816,0,0,0,13.612,16.07l12.944,2.508Z" transform="translate(-119.962 -38.85)" fill="#f9ae2b"/>
      <path id="Path_46143" data-name="Path 46143" d="M376.438,168.538c.257,3.857.392,7.714.484,11.571.057,1.928.07,3.857.1,5.786l.034,5.786-.033,5.786c-.035,1.929-.046,3.857-.1,5.786-.091,3.857-.226,7.714-.485,11.571-.259-3.857-.394-7.714-.485-11.571-.058-1.929-.069-3.857-.1-5.786l-.033-5.786.034-5.786c.034-1.929.046-3.857.1-5.786C376.046,176.252,376.181,172.4,376.438,168.538Z" transform="translate(-179.267 -48.771)" fill="#e59413"/>
      <path id="Path_46144" data-name="Path 46144" d="M307.967,189.493c1.569.133,3.107.322,4.645.5l4.6.55c1.53.18,3.058.33,4.592.48s3.071.237,4.644.371a21.882,21.882,0,0,1-4.674.607,34.1,34.1,0,0,1-4.7-.223,39.185,39.185,0,0,1-4.627-.827A27.593,27.593,0,0,1,307.967,189.493Z" transform="translate(-132.523 -63.208)" fill="#e59413"/>
      <path id="Path_46145" data-name="Path 46145" d="M307.967,210.848c1.569.133,3.107.322,4.645.5l4.6.55c1.53.18,3.058.33,4.592.48s3.071.237,4.644.371a21.882,21.882,0,0,1-4.674.607,34.1,34.1,0,0,1-4.7-.223,39.185,39.185,0,0,1-4.627-.827A27.593,27.593,0,0,1,307.967,210.848Z" transform="translate(-132.523 -77.92)" fill="#e59413"/>
      <path id="Path_46146" data-name="Path 46146" d="M307.967,232.2c1.569.133,3.107.322,4.645.5l4.6.55c1.53.18,3.058.33,4.592.48s3.071.237,4.644.371a21.882,21.882,0,0,1-4.674.607,34.1,34.1,0,0,1-4.7-.223,39.182,39.182,0,0,1-4.627-.827A27.592,27.592,0,0,1,307.967,232.2Z" transform="translate(-132.523 -92.633)" fill="#e59413"/>
      <path id="Path_46147" data-name="Path 46147" d="M307.967,253.559c1.569.133,3.107.322,4.645.5l4.6.55c1.53.18,3.058.33,4.592.48s3.071.237,4.644.371a21.881,21.881,0,0,1-4.674.607,34.1,34.1,0,0,1-4.7-.223,39.185,39.185,0,0,1-4.627-.827,27.593,27.593,0,0,1-4.47-1.461Z" transform="translate(-132.523 -107.346)" fill="#e59413"/>
      <path id="Path_46148" data-name="Path 46148" d="M307.967,274.915c1.569.133,3.107.322,4.645.5l4.6.55c1.53.18,3.058.33,4.592.48s3.071.237,4.644.371a21.881,21.881,0,0,1-4.674.607,34.1,34.1,0,0,1-4.7-.223,39.186,39.186,0,0,1-4.627-.827A27.59,27.59,0,0,1,307.967,274.915Z" transform="translate(-132.523 -122.059)" fill="#e59413"/>
      <path id="Path_46149" data-name="Path 46149" d="M430.955,177.392l-7.246,1.222a.622.622,0,0,1-.729-.492l-.24-5.234a.622.622,0,0,1,.492-.729l7.339-1.508a.622.622,0,0,1,.729.492l.147,5.521A.622.622,0,0,1,430.955,177.392Z" transform="translate(-211.587 -50.218)" fill="#ee781d"/>
      <path id="Path_46150" data-name="Path 46150" d="M417.73,218.852l-7.246,1.222a.622.622,0,0,1-.729-.492l-.24-5.234a.622.622,0,0,1,.492-.729l7.339-1.508a.622.622,0,0,1,.729.492l.147,5.521a.622.622,0,0,1-.492.729Z" transform="translate(-202.475 -78.782)" fill="#ee781d"/>
      <path id="Path_46151" data-name="Path 46151" d="M410.005,215.766a.622.622,0,0,0-.492.729l.24,5.234a.622.622,0,0,0,.729.492l2.849-.48-.647-6.526Z" transform="translate(-202.475 -80.929)" fill="#ce800d"/>
      <path id="Path_46152" data-name="Path 46152" d="M426.848,260.313l-7.246,1.222a.622.622,0,0,1-.729-.492l-.24-5.234a.622.622,0,0,1,.492-.729l7.339-1.508a.622.622,0,0,1,.729.492l.147,5.521A.622.622,0,0,1,426.848,260.313Z" transform="translate(-208.757 -107.346)" fill="#ee781d"/>
      <path id="Path_46153" data-name="Path 46153" d="M419.124,257.981a.622.622,0,0,0-.492.729l.24,5.234a.618.618,0,0,0,.31.423,25.25,25.25,0,0,0,.964-6.6Z" transform="translate(-208.757 -110.247)" fill="#ce800d"/>
      <circle id="Ellipse_287" data-name="Ellipse 287" cx="4.031" cy="4.031" r="4.031" transform="translate(172.68 183.217)" fill="#d3d3d3" stroke="#d3d3d3" stroke-width="1"/>
      <circle id="Ellipse_288" data-name="Ellipse 288" cx="2.09" cy="2.09" r="2.09" transform="translate(169.246 175.528)" fill="#d3d3d3" stroke="#d3d3d3" stroke-width="1"/>
      <circle id="Ellipse_289" data-name="Ellipse 289" cx="2.986" cy="2.986" r="2.986" transform="translate(182.023 176.722)" fill="#d3d3d3" stroke="#d3d3d3" stroke-width="1"/>
      <circle id="Ellipse_290" data-name="Ellipse 290" cx="4.796" cy="4.796" r="4.796" transform="translate(129.018 159.245)" fill="#d3d3d3" stroke="#d3d3d3" stroke-width="1"/>
      <circle id="Ellipse_291" data-name="Ellipse 291" cx="2.498" cy="2.498" r="2.498" transform="translate(122.15 158.127)" fill="#d3d3d3" stroke="#d3d3d3" stroke-width="1"/>
      <circle id="Ellipse_295" data-name="Ellipse 295" cx="2.498" cy="2.498" r="2.498" transform="translate(146.916 100.835)" fill="#d3d3d3" stroke="#d3d3d3" stroke-width="1"/>
      <circle id="Ellipse_296" data-name="Ellipse 296" cx="2.162" cy="2.162" r="2.162" transform="translate(163.892 102.631)" fill="#d3d3d3" stroke="#d3d3d3" stroke-width="1"/>
      <circle id="Ellipse_297" data-name="Ellipse 297" cx="1.441" cy="1.441" r="1.441" transform="translate(156.747 101.251)" fill="#d3d3d3" stroke="#d3d3d3" stroke-width="1"/>
      <rect id="Rectangle_4670" data-name="Rectangle 4670" width="5.655" height="5.655" transform="translate(153.661 159.462) rotate(29.699)" fill="#dbe8ec"/>
      <path id="Path_46154" data-name="Path 46154" d="M244.673,223.257a19.54,19.54,0,1,0-27.368-3.839A19.54,19.54,0,0,0,244.673,223.257Zm-24.326-6.13a15.733,15.733,0,1,1,22.032,3.089,15.733,15.733,0,0,1-22.032-3.089Z" transform="translate(-67.348 -62.259)" fill="#2d2e83"/>
      <circle id="Ellipse_299" data-name="Ellipse 299" cx="15.733" cy="15.733" r="15.733" transform="translate(149.827 129.664)" fill="#fff" opacity="0.76"/>
      <path id="Path_46155" data-name="Path 46155" d="M265.536,253.155a11.254,11.254,0,0,1-21.114,4.7" transform="translate(-88.744 -107.067)" fill="none" stroke="#e6e6e6" stroke-width="10"/>
      <rect id="Rectangle_4671" data-name="Rectangle 4671" width="10.302" height="24.472" rx="2" transform="translate(148.848 163.211) rotate(29.699)" fill="#2d2e83"/>
      <path id="Path_46156" data-name="Path 46156" d="M207.03,342.178,218.538,322a.622.622,0,0,0-.232-.849l-1.957-1.116a.622.622,0,0,1,.232.849l-11.508,20.177a.622.622,0,0,1-.849.232l1.957,1.116A.622.622,0,0,0,207.03,342.178Z" transform="translate(-61.049 -153.146)" fill="#161760"/>
      <path id="Path_46157" data-name="Path 46157" d="M186.185,330.5l11.508-20.177a.622.622,0,0,1,.849-.232l2.174,1.24-4.066-2.319a.622.622,0,0,0-.849.232l-11.508,20.177a.622.622,0,0,0,.232.849l1.892,1.079A.622.622,0,0,1,186.185,330.5Z" transform="translate(-47.261 -145.497)" fill="#4345b9"/>
      <path id="Path_46158" data-name="Path 46158" d="M198.292,384.993l3.8,2.169h0Z" transform="translate(-56.962 -197.897)" fill="#409cb5"/>
      <path id="Path_46159" data-name="Path 46159" d="M.622,0H11.666a.622.622,0,0,1,.622.622V2.47a4.1,4.1,0,0,1-4.1,4.1H4.1A4.1,4.1,0,0,1,0,2.47V.622A.622.622,0,0,1,.622,0Z" transform="translate(136.684 182.534) rotate(29.699)" fill="#dbe8ec"/>
      <path id="Path_46160" data-name="Path 46160" d="M180.088,374.051l.916-1.605a.622.622,0,0,1,.849-.232l7.831,4.467a.629.629,0,0,0-.1-.07l-9.593-5.471a.622.622,0,0,0-.849.232l-.916,1.605a4.1,4.1,0,0,0,1.529,5.59l1.658.945A4.1,4.1,0,0,1,180.088,374.051Z" transform="translate(-42.768 -188.295)" fill="#e8eeef"/>
      <path id="Path_46161" data-name="Path 46161" d="M193.475,388.881l.916-1.605a.622.622,0,0,0-.232-.849l-1.965-1.121a.622.622,0,0,1,.231.847l-.916,1.605a4.1,4.1,0,0,1-5.59,1.529l-1.591-.907,0,0,3.554,2.027A4.1,4.1,0,0,0,193.475,388.881Z" transform="translate(-47.341 -198.113)" fill="#bad5db"/>
    </g>
    <g id="DESIGNED_BY_FREEPIK" transform="translate(55.361 1328.618)">
      <g id="Group_6286" data-name="Group 6286" transform="translate(0 67.868)">
        <path id="Path_46039" data-name="Path 46039" d="M227.121,282.566s3.868-26.15,27.3-30.172,20.6-37.128,52.62-35.812,25.422,32.122,38.164,39.039,18.657,26.944,18.657,26.944Z" transform="translate(-107.075 -137.961)" fill="#95c11f"/>
        <path id="Path_46040" data-name="Path 46040" d="M133.07,279.311s0-21.2-25.13-28.672-19.147-46.36-50.56-40.377-16.155,45.773-28.421,54.449-9.574,14.6-9.574,14.6H133.07Z" transform="translate(-9.021 -134.705)" fill="#95c11f"/>
        <g id="Group_6277" data-name="Group 6277" transform="translate(222.815 60.726)">
          <path id="Path_46041" data-name="Path 46041" d="M466.747,286.632l-.949.017,17.22-61.727C488.392,227.08,466.747,286.632,466.747,286.632Z" transform="translate(-442.412 -202.636)" fill="#d3d3d3"/>
          <path id="Path_46042" data-name="Path 46042" d="M441.148,278.533,424.733,231.6c4.254-.207,9.756,18.142,12.317,27.659.862,3.435,1.432,5.567,1.432,5.567s-.537-2.244-1.432-5.567c-3.447-13.749-11.582-48.455-6.717-51.748L443.146,278.5Z" transform="translate(-423.052 -194.428)" fill="#d3d3d3"/>
          <path id="Path_46043" data-name="Path 46043" d="M463.415,266.96l1.463-83.847c5.929,4.013.746,72.8.746,72.8s10.083-49.422,15.713-50.743L464.1,266.947Z" transform="translate(-441.289 -182.925)" fill="#d3d3d3"/>
          <path id="Path_46044" data-name="Path 46044" d="M448.036,305.416c.9,3.323,1.432,5.567,1.432,5.567S448.9,308.851,448.036,305.416Z" transform="translate(-434.038 -240.584)" fill="#9dadec"/>
          <path id="Path_46045" data-name="Path 46045" d="M449.163,266.819l-12.849-71.186c6.721-1.169,12.867,60.114,12.867,60.114s-4.453-72.989,2.357-72.989l.017,0L450.089,266.8Z" transform="translate(-428.512 -182.758)" fill="#d3d3d3"/>
          <path id="Path_46046" data-name="Path 46046" d="M437.245,300.175s-20.43-43.678-14.668-46.791c.04-.021.08-.033.119-.051l16.373,46.812Z" transform="translate(-421.553 -216.03)" fill="#d3d3d3"/>
          <path id="Path_46047" data-name="Path 46047" d="M464.714,286.6l17.235-61.775a.91.91,0,0,1,.526.023c.012,0,.021.014.032.017l-17.22,61.726Z" transform="translate(-441.901 -202.575)" fill="#cce9ff"/>
          <path id="Path_46048" data-name="Path 46048" d="M462.375,266.8l1.467-84.042a1,1,0,0,1,.547.186l-1.463,83.847Z" transform="translate(-440.798 -182.759)" fill="#cce9ff"/>
          <path id="Path_46049" data-name="Path 46049" d="M448.141,278.313l-12.813-70.986a1.527,1.527,0,0,1,.292-.154,1.389,1.389,0,0,1,.229-.055L448.7,278.3Z" transform="translate(-428.047 -194.242)" fill="#cce9ff"/>
          <path id="Path_46050" data-name="Path 46050" d="M440.09,300.029l-16.373-46.812a1.478,1.478,0,0,1,.537-.13l16.415,46.932Z" transform="translate(-422.573 -215.914)" fill="#cce9ff"/>
        </g>
        <g id="Group_6278" data-name="Group 6278" transform="translate(3.064 60.726)">
          <path id="Path_46051" data-name="Path 46051" d="M33.4,266.819,20.555,195.633c6.721-1.168,12.867,60.114,12.867,60.114s-4.453-72.989,2.357-72.989l.017,0L34.331,266.8Z" transform="translate(-12.754 -182.758)" fill="#d3d3d3"/>
          <path id="Path_46052" data-name="Path 46052" d="M25.389,278.533,8.975,231.6c4.253-.208,9.755,18.142,12.318,27.659.862,3.435,1.431,5.567,1.431,5.567s-.536-2.244-1.431-5.567C17.845,245.511,9.71,210.8,14.576,207.512L27.389,278.5Z" transform="translate(-7.295 -194.428)" fill="#d3d3d3"/>
          <path id="Path_46053" data-name="Path 46053" d="M32.28,305.416c.895,3.323,1.431,5.567,1.431,5.567S33.142,308.851,32.28,305.416Z" transform="translate(-18.282 -240.584)" fill="#9dadec"/>
          <path id="Path_46054" data-name="Path 46054" d="M21.487,300.174S1.058,256.5,6.82,253.383c.04-.021.079-.033.119-.052l16.374,46.813Z" transform="translate(-5.796 -216.029)" fill="#d3d3d3"/>
          <path id="Path_46055" data-name="Path 46055" d="M50.989,286.632l-.949.017,17.22-61.727C72.633,227.08,50.989,286.632,50.989,286.632Z" transform="translate(-26.655 -202.636)" fill="#d3d3d3"/>
          <path id="Path_46056" data-name="Path 46056" d="M47.658,266.96l1.464-83.847c5.928,4.013.745,72.8.745,72.8s10.083-49.422,15.712-50.743L48.345,266.946Z" transform="translate(-25.532 -182.925)" fill="#d3d3d3"/>
          <path id="Path_46057" data-name="Path 46057" d="M48.957,286.6l17.235-61.775a.908.908,0,0,1,.526.023c.012,0,.021.014.033.017L49.53,286.587Z" transform="translate(-26.144 -202.575)" fill="#cce9ff"/>
          <path id="Path_46058" data-name="Path 46058" d="M46.617,266.8l1.466-84.042a1,1,0,0,1,.548.186l-1.464,83.847Z" transform="translate(-25.041 -182.759)" fill="#cce9ff"/>
          <path id="Path_46059" data-name="Path 46059" d="M32.384,278.312,19.571,207.325a1.512,1.512,0,0,1,.292-.154,1.237,1.237,0,0,1,.228-.055L32.94,278.3Z" transform="translate(-12.29 -194.241)" fill="#cce9ff"/>
          <path id="Path_46060" data-name="Path 46060" d="M24.333,300.029,7.959,253.215a1.488,1.488,0,0,1,.537-.13L24.91,300.018Z" transform="translate(-6.816 -215.914)" fill="#cce9ff"/>
        </g>
        <g id="Group_6279" data-name="Group 6279" transform="translate(183.7 88.142)">
          <path id="Path_46061" data-name="Path 46061" d="M413.517,234.977l-13.278,55.939-1.059-.009-3.257-16.414C395.756,267.864,396.852,248.67,413.517,234.977Z" transform="translate(-370.348 -234.792)" fill="#36a9e1"/>
          <path id="Path_46062" data-name="Path 46062" d="M424.4,316.485l-5.876-.05,24.357-27.471C436.782,310.659,424.4,316.485,424.4,316.485Z" transform="translate(-381.011 -260.244)" fill="#36a9e1"/>
          <path id="Path_46063" data-name="Path 46063" d="M440.715,287.687l-24.951,28.14-1.55-.015,7.714-15.795C424.819,295.571,430.958,288.395,440.715,287.687Z" transform="translate(-378.978 -259.642)" fill="#36a9e1"/>
          <path id="Path_46064" data-name="Path 46064" d="M417.541,274.534l-8.2,16.8-4.174-.036,13.181-55.526C424.44,251.033,420.272,266.97,417.541,274.534Z" transform="translate(-374.712 -235.165)" fill="#36a9e1"/>
          <path id="Path_46065" data-name="Path 46065" d="M366.641,308.685s-18.745-7.248-19.077-35.82l24.785,35.869Z" transform="translate(-347.556 -252.654)" fill="#36a9e1"/>
          <path id="Path_46066" data-name="Path 46066" d="M372.841,292.211l3.165,15.951-2.8-.023-25.255-36.551C365.792,279.054,371.26,288.29,372.841,292.211Z" transform="translate(-347.737 -252.052)" fill="#36a9e1"/>
          <path id="Path_46067" data-name="Path 46067" d="M442.435,287.631c-.064.241-.135.468-.2.7l-24.357,27.471-.729-.006,24.951-28.14C442.211,287.653,442.321,287.638,442.435,287.631Z" transform="translate(-380.36 -259.615)" fill="#2a94f4"/>
          <path id="Path_46068" data-name="Path 46068" d="M417.6,234.627c.085.2.163.4.243.6l-13.181,55.526-.563,0,13.278-55.939C417.454,234.752,417.525,234.689,417.6,234.627Z" transform="translate(-374.209 -234.627)" fill="#2a94f4"/>
          <path id="Path_46069" data-name="Path 46069" d="M347.759,271.5l25.255,36.551-.672-.007-24.785-35.869c0-.254-.007-.507-.007-.766C347.621,271.444,347.688,271.476,347.759,271.5Z" transform="translate(-347.549 -251.969)" fill="#2a94f4"/>
          <path id="Path_46070" data-name="Path 46070" d="M425.267,316.894c-.117.253-.184.388-.184.388S425.144,317.143,425.267,316.894Z" transform="translate(-384.102 -273.411)" fill="#577bc2"/>
          <path id="Path_46071" data-name="Path 46071" d="M419.6,313.224c-.123.249-.184.388-.184.388s.067-.134.184-.388a30.389,30.389,0,0,1,1.785-3.108l-7.714,15.795-.609,0,8.2-16.8C420.529,311.148,419.9,312.579,419.6,313.224Z" transform="translate(-378.435 -269.741)" fill="#577bc2"/>
          <path id="Path_46072" data-name="Path 46072" d="M395.655,312.1s-.1-.859-.14-2.363l3.257,16.414-.561-.005L395.046,310.2A10.647,10.647,0,0,1,395.655,312.1Z" transform="translate(-369.941 -270.038)" fill="#577bc2"/>
        </g>
        <g id="Group_6280" data-name="Group 6280" transform="translate(11.555 87.244)">
          <path id="Path_46073" data-name="Path 46073" d="M79.8,278.048l-2.922,12.873H75.426l-8.5-57.764C81.823,248.165,81.1,268.69,79.8,278.048Z" transform="translate(-43.108 -233.036)" fill="#36a9e1"/>
          <path id="Path_46074" data-name="Path 46074" d="M109.249,268.077,87.493,307.384H86.81l3.224-14.2C92.587,285.812,98.228,273.919,109.249,268.077Z" transform="translate(-52.481 -249.499)" fill="#36a9e1"/>
          <path id="Path_46075" data-name="Path 46075" d="M92.544,307.662H89.289l21.584-38.994C110.652,298.862,92.544,307.662,92.544,307.662Z" transform="translate(-53.649 -249.778)" fill="#36a9e1"/>
          <path id="Path_46076" data-name="Path 46076" d="M43.958,315.753s-14.816-6.911-21.615-29.924l24.044,29.924Z" transform="translate(-22.088 -257.868)" fill="#36a9e1"/>
          <path id="Path_46077" data-name="Path 46077" d="M43.725,303.056l4.5,12.047H47.2L22.568,284.451C34.276,288.109,40.717,297.287,43.725,303.056Z" transform="translate(-22.194 -257.219)" fill="#36a9e1"/>
          <path id="Path_46078" data-name="Path 46078" d="M62.107,234.376l8.4,57.12H65.365L60.859,279.43C58.376,270.536,54.6,251.3,62.107,234.376Z" transform="translate(-38.748 -233.611)" fill="#36a9e1"/>
          <path id="Path_46079" data-name="Path 46079" d="M110.319,267.617c0,.187,0,.37,0,.556L88.73,307.167H88.1l21.756-39.307C110.011,267.779,110.164,267.7,110.319,267.617Z" transform="translate(-53.09 -249.282)" fill="#2a94f4"/>
          <path id="Path_46080" data-name="Path 46080" d="M66.4,232.929c.04.04.077.082.117.121l8.5,57.764h-.556l-8.4-57.12C66.168,233.44,66.281,233.184,66.4,232.929Z" transform="translate(-42.696 -232.929)" fill="#2a94f4"/>
          <path id="Path_46081" data-name="Path 46081" d="M22.235,284.342l24.629,30.652h-.7L22.116,285.07c-.085-.285-.173-.562-.255-.851C21.988,284.257,22.109,284.3,22.235,284.342Z" transform="translate(-21.861 -257.109)" fill="#2a94f4"/>
          <path id="Path_46082" data-name="Path 46082" d="M88.04,320.562c-.214.863-.31,1.356-.31,1.356s.127-.479.31-1.356c.279-1.119.757-2.864,1.492-4.986l-3.224,14.2h-.562L88.668,316.9C88.452,318.457,88.22,319.7,88.04,320.562Z" transform="translate(-51.979 -271.892)" fill="#577bc2"/>
          <path id="Path_46083" data-name="Path 46083" d="M89.811,325.01c-.182.877-.31,1.356-.31,1.356S89.6,325.873,89.811,325.01Z" transform="translate(-53.749 -276.34)" fill="#577bc2"/>
          <path id="Path_46084" data-name="Path 46084" d="M64.421,323.64c.218.631.348.968.348.968s-.114-.356-.348-.968c-.292-.847-.742-2.225-1.244-4.025l4.506,12.066H67.1l-4.5-12.047A38.871,38.871,0,0,1,64.421,323.64Z" transform="translate(-41.065 -273.796)" fill="#577bc2"/>
          <path id="Path_46085" data-name="Path 46085" d="M66.048,327.231c.235.612.348.968.348.968S66.265,327.862,66.048,327.231Z" transform="translate(-42.693 -277.387)" fill="#577bc2"/>
        </g>
        <path id="Path_46086" data-name="Path 46086" d="M132.037,311.907c92.924,0,132.037,15.342,132.037,15.342S224.961,333.7,132.037,333.7,0,327.249,0,327.249,39.113,311.907,132.037,311.907Z" transform="translate(0 -182.919)" fill="#d8eaf3"/>
        <path id="Path_46118" data-name="Path 46118" d="M252.548,118.528c-.014.1-.028.19-.05.282-.1,0-.19.007-.274.007A3.149,3.149,0,0,1,252.548,118.528Z" transform="translate(-118.91 -91.751)" fill="#cce9ff"/>
        <path id="Path_46119" data-name="Path 46119" d="M252.548,118.528c-.014.1-.028.19-.05.282-.1,0-.19.007-.274.007A3.149,3.149,0,0,1,252.548,118.528Z" transform="translate(-118.91 -91.751)" fill="#cce9ff"/>
        <path id="Path_46121" data-name="Path 46121" d="M243.656,120.148c0,.161,0,.337.014.535a1.38,1.38,0,0,1-.057-.415.824.824,0,0,1,.014-.183A.26.26,0,0,0,243.656,120.148Z" transform="translate(-114.85 -92.485)" fill="#0b4870"/>
        <path id="Path_46122" data-name="Path 46122" d="M252.225,118.816a3.207,3.207,0,0,1,.323-.288c-.014.1-.028.19-.05.282C252.4,118.809,252.309,118.816,252.225,118.816Z" transform="translate(-118.91 -91.751)" fill="#0b4870"/>
        <path id="Path_46123" data-name="Path 46123" d="M254.188,116.435a4.425,4.425,0,0,0-1.589.738,2.49,2.49,0,0,0,.021-.331,2.6,2.6,0,0,0-.289-1.188A4.159,4.159,0,0,1,254.188,116.435Z" transform="translate(-118.96 -90.396)" fill="#0b4870"/>
        <g id="Group_6283" data-name="Group 6283" transform="translate(72.104 21.46)">
          <path id="Path_46124" data-name="Path 46124" d="M157.977,127.287a4.518,4.518,0,0,1,3.621,2.59,5.058,5.058,0,0,1,.475,4.268,7.242,7.242,0,0,1-2.919,3.385l1.128,2.615-3.266,1.707-2.275-3.96a9.848,9.848,0,0,0,3.131-2.88,2.51,2.51,0,0,0,.069-2.542,2.222,2.222,0,0,0-1.556-1.249,3.7,3.7,0,0,0-2.4.523,3.651,3.651,0,0,0-1.849,1.972,3.613,3.613,0,0,0,.191,2.746l-4.236.374a5.664,5.664,0,0,1,.325-4.5,11.162,11.162,0,0,1,9.565-5.051Zm3.563,15.132a2.483,2.483,0,0,1,1.6,3.053,2.719,2.719,0,0,1-1.393,1.443,2.662,2.662,0,0,1-1.967.313,2.523,2.523,0,0,1-1.6-3.053,2.664,2.664,0,0,1,1.38-1.438A2.717,2.717,0,0,1,161.54,142.419Z" transform="translate(-147.769 -127.242)" fill="#ffbe55"/>
        </g>
        <g id="Group_6284" data-name="Group 6284" transform="translate(191.924 8.598)">
          <path id="Path_46125" data-name="Path 46125" d="M325.686,118.6a5.733,5.733,0,0,1,1.066,5.548,6.418,6.418,0,0,1-3.293,4.342,9.178,9.178,0,0,1-5.642.559l-1.248,3.392-4.5-1.285,1.369-5.629a12.471,12.471,0,0,0,5.4.087,3.185,3.185,0,0,0,2.285-2.278,2.818,2.818,0,0,0-.34-2.509,4.692,4.692,0,0,0-2.667-1.62,4.633,4.633,0,0,0-3.426.2,4.586,4.586,0,0,0-2.225,2.692l-4.223-3.36a7.187,7.187,0,0,1,4.231-3.854,14.173,14.173,0,0,1,13.212,3.715Zm-9.95,17.031a3.151,3.151,0,0,1-1.2,4.2,3.452,3.452,0,0,1-2.544.11,3.379,3.379,0,0,1-2.082-1.433,3.2,3.2,0,0,1,1.2-4.2,3.378,3.378,0,0,1,2.525-.115A3.453,3.453,0,0,1,315.736,135.632Z" transform="translate(-308.243 -114.406)" fill="#ffbe55"/>
        </g>
        <g id="Group_6285" data-name="Group 6285" transform="translate(130.736 -6.638) rotate(-16)">
          <path id="Path_46126" data-name="Path 46126" d="M240.254,69.719a2.528,2.528,0,0,1,.471,2.447,2.832,2.832,0,0,1-1.454,1.915,4.046,4.046,0,0,1-2.49.247l-.551,1.5-1.984-.567.6-2.483a5.49,5.49,0,0,0,2.381.039,1.4,1.4,0,0,0,1.008-1,1.243,1.243,0,0,0-.15-1.107,2.076,2.076,0,0,0-1.176-.714,2.046,2.046,0,0,0-1.512.087,2.016,2.016,0,0,0-.981,1.189l-1.864-1.483a3.174,3.174,0,0,1,1.866-1.7,6.25,6.25,0,0,1,5.828,1.639Zm-4.39,7.513a1.389,1.389,0,0,1-.53,1.854,1.519,1.519,0,0,1-1.122.049,1.488,1.488,0,0,1-.919-.633,1.41,1.41,0,0,1,.53-1.854,1.491,1.491,0,0,1,1.114-.051A1.522,1.522,0,0,1,235.864,77.231Z" transform="translate(-232.559 -67.868)" fill="#ffbe55"/>
        </g>
      </g>
    </g>
  </g>
</svg>
