<svg id="Component_2_14" data-name="Component 2 – 14" xmlns="http://www.w3.org/2000/svg" width="15.3" height="10.5" viewBox="0 0 15.3 10.5">
  <path id="Icon_awesome-eye" data-name="Icon awesome-eye" d="M15.208,9.351A8.5,8.5,0,0,0,7.65,4.5,8.5,8.5,0,0,0,.092,9.351a.908.908,0,0,0,0,.8A8.5,8.5,0,0,0,7.65,15a8.5,8.5,0,0,0,7.558-4.851A.908.908,0,0,0,15.208,9.351ZM7.65,13.688A3.883,3.883,0,0,1,3.825,9.75,3.883,3.883,0,0,1,7.65,5.813,3.883,3.883,0,0,1,11.475,9.75,3.881,3.881,0,0,1,7.65,13.688Zm0-6.563a2.465,2.465,0,0,0-.672.1,1.337,1.337,0,0,1-.125,1.7A1.244,1.244,0,0,1,5.2,9.058a2.657,2.657,0,0,0,1.038,2.861,2.485,2.485,0,0,0,2.965-.1,2.665,2.665,0,0,0,.86-2.923A2.551,2.551,0,0,0,7.65,7.125Z" transform="translate(0 -4.5)" fill="#e71d73"/>
</svg>
