<svg id="Group_5078" data-name="Group 5078" xmlns="http://www.w3.org/2000/svg"
     width="199.767" height="82.134" viewBox="0 0 199.767 82.134">
  <defs>
    <clipPath id="clip-path">
      <rect id="Rectangle_4164" data-name="Rectangle 4164" width="199.767" height="82.134"
            fill="none"/>
    </clipPath>
  </defs>
  <g id="Group_5078-2" data-name="Group 5078" clip-path="url(#clip-path)">
    <path id="Path_27208" data-name="Path 27208"
          d="M126.08,51.966v-26.3H110.639v54.2H126.08V52.892c0-.309.006-.618,0-.926M114,34.177a23.944,23.944,0,0,1,4,4.172c.048.064.1.127.143.191.132.18.26.364.388.548.094.136.187.273.278.412s.18.276.268.415c.113.18.223.363.331.546.081.136.161.272.238.409.144.255.285.513.419.773l.075.145A23.918,23.918,0,0,1,122.6,55.015c0,.028-.006.055-.009.083-.034.318-.075.637-.122.954-.02.136-.043.273-.066.409-.036.22-.074.439-.117.658s-.085.413-.131.62c-.038.171-.076.343-.118.514s-.082.323-.125.484q-.08.3-.169.6c-.041.137-.081.275-.124.411-.092.289-.188.576-.291.863-.015.041-.028.082-.043.122a23.679,23.679,0,0,1-7.293,10.23V34.173l.006,0m-.006-5.164h8.737v10.5c-.047-.085-.1-.168-.147-.253q-.213-.38-.439-.753c-.032-.052-.06-.1-.091-.157s-.05-.077-.074-.115c-.077-.124-.156-.246-.235-.369-.052-.08-.1-.161-.155-.24a26.925,26.925,0,0,0-7.6-7.625Zm0,47.493V75.137l.061-.044a26.892,26.892,0,0,0,8.675-9.453V76.507Z"
          transform="translate(-73.552 -17.059)" fill="#fff"/>
    <path id="Path_27209" data-name="Path 27209"
          d="M398.308,125.8l-.247-.653a27.168,27.168,0,0,0-2.337-4.739l-1.423.884-.885-1.423-11.693,7.271.884,1.423a11.561,11.561,0,0,1,1.5,8.494l0,.014a11.613,11.613,0,0,1-17.349,7.641l-1.442-.864-7.91,13.286,1.439.857a26.916,26.916,0,0,0,13.821,3.831,27.27,27.27,0,0,0,6.693-.839A27.086,27.086,0,0,0,398.3,125.82Zm-4.6-2.167q.524,1,.954,2.038c-.017.034-.033.069-.05.1q-.267.536-.558,1.055c-.049.088-.1.174-.152.261q-.242.419-.5.827c-.06.1-.12.191-.181.285-.217.332-.439.658-.672.977-.051.07-.1.137-.155.206q-.295.4-.605.779c-.072.089-.144.178-.217.266-.254.3-.514.6-.782.894-.045.049-.092.1-.137.143q-.355.377-.725.738c-.082.08-.164.159-.246.237-.291.276-.586.546-.892.808l-.079.065c-.288.244-.582.479-.882.71l-.13.1a14.87,14.87,0,0,0-1.441-5.858Zm-.607,23.243a23.737,23.737,0,0,1-31.071,9.043l4.5-7.55a14.963,14.963,0,0,0,20.693-9.879c.036-.021.069-.045.1-.067q.592-.358,1.164-.74c.053-.035.1-.073.155-.108q.5-.342.983-.706.137-.1.273-.207a26.973,26.973,0,0,0,2.1-1.792c.078-.074.156-.15.233-.225q.429-.417.839-.851c.046-.049.093-.1.139-.144q.469-.505.911-1.035c.059-.07.116-.142.174-.213q.368-.449.717-.914c.057-.076.115-.151.172-.228q.41-.559.794-1.139l.022-.032a23.593,23.593,0,0,1-2.9,16.787"
          transform="translate(-237.602 -79.686)" fill="#fff"/>
    <path id="Path_27210" data-name="Path 27210"
          d="M405.058,25.1l0,3.352a23.877,23.877,0,0,1,20.2,11.3l.491.8h7.471l.007-15.456Zm24.8,12.1H427.6a27.147,27.147,0,0,0-9.562-8.751h11.831Z"
          transform="translate(-269.276 -16.685)" fill="#fff"/>
    <path id="Path_27211" data-name="Path 27211"
          d="M25.457,42.2A13.323,13.323,0,1,0,38.764,55.537v-.016A13.33,13.33,0,0,0,25.457,42.2m0,38.75a25.427,25.427,0,1,1,25.4-25.457v.028a25.44,25.44,0,0,1-25.4,25.428"
          transform="translate(0 -20.006)" fill="#fff"/>
    <path id="Path_27212" data-name="Path 27212"
          d="M191.1,81.75a25.44,25.44,0,0,1-25.4-25.428V31.3h12.088V56.322a13.307,13.307,0,1,0,26.614.012V31.3H216.5V56.322A25.44,25.44,0,0,1,191.1,81.75"
          transform="translate(-110.159 -20.806)" fill="#fff"/>
    <path id="Path_27213" data-name="Path 27213"
          d="M354.567,42.2a13.323,13.323,0,1,0,13.306,13.341v-.017A13.33,13.33,0,0,0,354.567,42.2m0,38.75a25.427,25.427,0,1,1,25.4-25.458v.03a25.441,25.441,0,0,1-25.4,25.428"
          transform="translate(-218.788 -20.006)" fill="#fff"/>
    <path id="Path_27214" data-name="Path 27214"
          d="M401.05,137.372a25.589,25.589,0,0,1-10.741,11.669,13.29,13.29,0,0,1-19.853,8.744l-6.193,10.4a25.411,25.411,0,0,0,36.78-30.811"
          transform="translate(-242.158 -91.323)" fill="#e71d73"/>
    <path id="Path_27215" data-name="Path 27215"
          d="M447.1,124.113,436.83,130.5a13.289,13.289,0,0,1,1.721,9.727,25.58,25.58,0,0,0,10.741-11.668,25.465,25.465,0,0,0-2.193-4.446"
          transform="translate(-290.4 -82.509)" fill="#6f2e76"/>
    <path id="Path_27216" data-name="Path 27216"
          d="M127.728,30.661H115.639v3.584a25.431,25.431,0,0,1,0,43.3v3.962h12.089Z"
          transform="translate(-76.875 -20.383)" fill="#95c11f"/>
    <path id="Path_27217" data-name="Path 27217"
          d="M115.639,41.364v43.3a25.431,25.431,0,0,0,0-43.3"
          transform="translate(-76.875 -27.498)" fill="#00933a"/>
    <rect id="Rectangle_4162" data-name="Rectangle 4162" width="12.089" height="57.425"
          transform="translate(168.382)" fill="#fff"/>
    <rect id="Rectangle_4163" data-name="Rectangle 4163" width="12.089" height="57.425"
          transform="translate(187.678)" fill="#fff"/>
    <path id="Path_27218" data-name="Path 27218"
          d="M431.545,30.1H405.059a25.4,25.4,0,0,1,21.623,12.1h4.858Z"
          transform="translate(-269.279 -20.009)" fill="#f39200"/>
    <path id="Path_27219" data-name="Path 27219"
          d="M405.055,30.1V42.2h21.623a25.4,25.4,0,0,0-21.623-12.1"
          transform="translate(-269.276 -20.009)" fill="#696832"/>
    <path id="Path_27220" data-name="Path 27220"
          d="M401.05,137.372a25.589,25.589,0,0,1-10.741,11.669,13.29,13.29,0,0,1-19.853,8.744l-6.193,10.4a25.411,25.411,0,0,0,36.78-30.811"
          transform="translate(-242.158 -91.323)" fill="#ad18e7"/>
    <path id="Path_27221" data-name="Path 27221"
          d="M447.1,124.113,436.83,130.5a13.289,13.289,0,0,1,1.721,9.727,25.58,25.58,0,0,0,10.741-11.668,25.465,25.465,0,0,0-2.193-4.446"
          transform="translate(-290.4 -82.509)" fill="#7f0073"/>
    <path id="Path_27222" data-name="Path 27222"
          d="M127.728,30.661H115.639v3.584a25.431,25.431,0,0,1,0,43.3v3.962h12.089Z"
          transform="translate(-76.875 -20.383)" fill="#36a9e1"/>
    <path id="Path_27223" data-name="Path 27223"
          d="M115.639,41.364v43.3a25.431,25.431,0,0,0,0-43.3"
          transform="translate(-76.875 -27.498)" fill="#1483af"/>
    <path id="Path_27224" data-name="Path 27224"
          d="M431.545,30.1H405.059a25.4,25.4,0,0,1,21.623,12.1h4.858Z"
          transform="translate(-269.279 -20.009)" fill="#f39200"/>
    <path id="Path_27225" data-name="Path 27225"
          d="M405.055,30.1V42.2h21.623a25.4,25.4,0,0,0-21.623-12.1"
          transform="translate(-269.276 -20.009)" fill="#824d00"/>
  </g>
</svg>
