<svg xmlns="http://www.w3.org/2000/svg" width="18.196" height="17.878" viewBox="0 0 18.196 17.878">
  <path id="taxi" d="M549.166,233.824l-1.076-4.989a2.463,2.463,0,0,0-2.408-1.944H543.39a.552.552,0,0,0,.076-.266v-.538a.57.57,0,0,0-.57-.568h-3.949a.568.568,0,0,0-.57.568v.538a.549.549,0,0,0,.073.266h-1.738a2.465,2.465,0,0,0-2.408,1.944l-1.076,4.989a1.631,1.631,0,0,0-1.129,1.543v3.652a1.64,1.64,0,0,0,1.6,1.635V242.8a.6.6,0,0,0,.6.6h1.678a.6.6,0,0,0,.6-.6v-2.134h9.258V242.8a.6.6,0,0,0,.6.6H548.1a.6.6,0,0,0,.6-.6v-2.145a1.638,1.638,0,0,0,1.6-1.635v-3.652A1.631,1.631,0,0,0,549.166,233.824Zm-14.016,5.343a1.257,1.257,0,1,1,1.257-1.257A1.258,1.258,0,0,1,535.151,239.167Zm-.076-6.545a.459.459,0,0,1-.449-.554l.572-2.653a1.9,1.9,0,0,1,1.859-1.5h8.022a1.9,1.9,0,0,1,1.857,1.5l.572,2.653a.458.458,0,0,1-.449.554Zm12.168,6.545a1.257,1.257,0,1,1,1.257-1.257A1.258,1.258,0,0,1,547.243,239.167Z" transform="translate(-532.099 -225.52)" fill="#95c11f"/>
</svg>
